<svg xmlns="http://www.w3.org/2000/svg" xmlns:xlink="http://www.w3.org/1999/xlink" width="300" height="300" viewBox="0 0 300 300">
  <defs>
    <clipPath id="clip-path">
      <rect id="Rectangle_67" data-name="Rectangle 67" width="300" height="300" fill="none"/>
    </clipPath>
  </defs>
  <g id="Group_95" data-name="Group 95" transform="translate(-757 -883)">
    <circle id="Ellipse_1" data-name="Ellipse 1" cx="150" cy="150" r="150" transform="translate(757 883)" fill="#fff"/>
    <g id="Group_94" data-name="Group 94" transform="translate(757 883)">
      <g id="Group_94-2" data-name="Group 94" clip-path="url(#clip-path)">
        <path id="Path_255" data-name="Path 255" d="M52.628,77.13a6.92,6.92,0,0,0-3.005-7.687,7.01,7.01,0,0,0-5.7-1.162q-2.639.63-4.812,3.856l-.766,1.137,11.975,8.06.766-1.136a11.409,11.409,0,0,0,1.544-3.068" transform="translate(0.905 1.607)" fill="#0a2b71"/>
        <path id="Path_256" data-name="Path 256" d="M75.053,241.638l-.868-.649-3.83,5.122.774.577q3.459,2.587,5.437-.056,1.853-2.477-1.513-4.994" transform="translate(1.66 5.688)" fill="#0a2b71"/>
        <path id="Path_257" data-name="Path 257" d="M192.909,258.568a7.1,7.1,0,0,0-5.729-.228,7.177,7.177,0,0,0-4.23,3.892,7.564,7.564,0,1,0,13.665,6.488,7.821,7.821,0,0,0-3.706-10.151" transform="translate(4.301 6.085)" fill="#0a2b71"/>
        <path id="Path_258" data-name="Path 258" d="M102.968,267.7l5.8,1.964-.631-7.449Z" transform="translate(2.43 6.188)" fill="#0a2b71"/>
        <path id="Path_259" data-name="Path 259" d="M29.1,112.949a7.288,7.288,0,0,0,5.912-.515,7.436,7.436,0,0,0,3.08-10.047A7.824,7.824,0,0,0,27.78,99.158a7.1,7.1,0,0,0-3.666,4.41,7.178,7.178,0,0,0,.517,5.725,7.28,7.28,0,0,0,4.469,3.656" transform="translate(0.56 2.32)" fill="#0a2b71"/>
        <path id="Path_260" data-name="Path 260" d="M255.283,93.441a7.434,7.434,0,0,0,3.993,9.719A7.822,7.822,0,0,0,269.3,99.115a7.108,7.108,0,0,0,.036-5.736,7.184,7.184,0,0,0-4.032-4.1,7.77,7.77,0,0,0-10.018,4.157" transform="translate(6.011 2.093)" fill="#0a2b71"/>
        <path id="Path_261" data-name="Path 261" d="M184.881,20.339l-4.952,5.678,5.869,1.742Z" transform="translate(4.246 0.48)" fill="#0a2b71"/>
        <path id="Path_262" data-name="Path 262" d="M150,0A150,150,0,1,0,300,150,150,150,0,0,0,150,0M278.006,94.433a10.538,10.538,0,0,1-5.762,13.656,9.912,9.912,0,0,1-8-.1,10.649,10.649,0,0,1-5.789-13.343,10.4,10.4,0,0,1,13.913-5.979,10.263,10.263,0,0,1,5.64,5.767m-17.889,53.216A108.506,108.506,0,1,1,151.611,39.144,108.506,108.506,0,0,1,260.116,147.649m5.118-76.967,6.3,10.555L269.083,82.7l-2.367-3.967L251.867,87.6l-1.557-2.611,14.845-8.867-2.377-3.978ZM250.087,55.538a10.6,10.6,0,0,1,9.183,7.82,12.725,12.725,0,0,1,.037,4.963l-2.98-.349a7.349,7.349,0,0,0-1.3-6.762,7.22,7.22,0,0,0-5.115-2.733,7.367,7.367,0,0,0-5.567,1.787,7.572,7.572,0,0,0-1.184,10.456,6.079,6.079,0,0,0,3.737,2.145,5.389,5.389,0,0,0,4.088-.786l-3.2-3.876,2.2-1.82,5.3,6.422-.512.424a13.753,13.753,0,0,1-3.44,2.146,8.531,8.531,0,0,1-3.457.57,9.132,9.132,0,0,1-6.982-3.495,9.809,9.809,0,0,1-2.256-7.531,10.527,10.527,0,0,1,11.445-9.383M233.4,54.961l8.869-10.839,2.353,1.924L231.083,62.593l-1.661-21.174-8.936,10.919-2.354-1.926,13.63-16.657Zm-8.965-24.149L213.856,47.965l-2.589-1.6,10.579-17.151ZM201.506,18.9l3.014,1.414-.882,15.01,11.046-10.245,3.013,1.413L200.309,42.268Zm-10.391-4.6,3.13,23.27-3.193-.946-.634-5.293-8.272-2.456-3.543,4.053L175.463,32Zm-23.408-3.6,3.009.434L168.24,28.252l5.864.85-.409,2.829-8.874-1.285ZM132.252,9.517l8.339,14.954,5.681-16.26,5.8,21.22-3.106.288-3.065-11.931-4.724,13.588L134.2,18.866l-1.029,12.327-3.131.292ZM113.1,14.141,128.429,31.93l-3.193.949-3.419-4.089-8.271,2.459-.757,5.331-3.14.934ZM99.6,20.15l1.216,2.587L93.5,26.174l2.061,4.382,7.1-3.339,1.216,2.587-7.1,3.339,2.865,6.093,7.312-3.437,1.217,2.587L98.108,43.118,89.532,24.882ZM76.411,32.721q3.358-2.17,5.663-1.872a5.517,5.517,0,0,1,4.039,2.64,5.73,5.73,0,0,1,.968,3.759,5.47,5.47,0,0,1-1.647,3.412l9.9,3.822L92.213,46.5,82.9,42.7l-.461.3,4.48,6.926-2.553,1.651L73.421,34.657ZM69.119,37.8l1.841,2.187L67.425,42.96,78.559,56.193l-2.327,1.958L65.1,44.918,61.553,47.9l-1.841-2.187Zm-17.072,15.2a6.032,6.032,0,0,1,6.185-1.706l-.595,2.806A4.247,4.247,0,0,0,55.591,54a3.065,3.065,0,0,0-1.447.956,3.1,3.1,0,0,0-.895,2.032,2.218,2.218,0,0,0,.74,1.817q1.086,1,3.232-.005l1.967-.92a8.583,8.583,0,0,1,4.212-1,5.462,5.462,0,0,1,3.348,1.539,6.157,6.157,0,0,1,2.123,4.475,6.364,6.364,0,0,1-1.792,4.646A6.207,6.207,0,0,1,63,69.675,7.147,7.147,0,0,1,58.36,68.26l1.587-2.726a5.224,5.224,0,0,0,2.3,1.125,3.47,3.47,0,0,0,3.715-3.516,3.292,3.292,0,0,0-1.137-2.327,3.456,3.456,0,0,0-.9-.609,2.7,2.7,0,0,0-1.007-.235,4.092,4.092,0,0,0-1.171.135,8.6,8.6,0,0,0-1.389.5l-1.912.881q-4.089,1.861-6.565-.421a4.862,4.862,0,0,1-1.62-3.85,6.281,6.281,0,0,1,1.792-4.221M37.542,72.3a15.357,15.357,0,0,1,3.18-3.649,8.993,8.993,0,0,1,3.572-1.733,9.651,9.651,0,0,1,7.947,1.588,9.809,9.809,0,0,1,4.17,10.846A15.645,15.645,0,0,1,54.23,83.6L51.9,87.06,35.18,75.808ZM29.823,86.144l15.53,7.607,2.608-5.321,2.566,1.258-3.944,8.053-18.1-8.866ZM21.956,105a10.083,10.083,0,0,1,5.132-6.141,10.063,10.063,0,0,1,7.986-.76,9.915,9.915,0,0,1,6.122,5.154,10.648,10.648,0,0,1-3.991,13.985,9.9,9.9,0,0,1-8.492.945,9.875,9.875,0,0,1-6.056-5.148,10.276,10.276,0,0,1-.7-8.036m2.809,82.029a6.667,6.667,0,1,1,6.667-6.667,6.667,6.667,0,0,1-6.667,6.667m9.153-50.823a9.987,9.987,0,0,1-7.649,2.128,10.347,10.347,0,0,1-6.507-3.358,10.14,10.14,0,0,1-2.683-8.495,10.285,10.285,0,0,1,2.1-5.029l3.577.437a8.439,8.439,0,0,0-2.853,5.148,6.949,6.949,0,0,0,1.58,5.466,7.525,7.525,0,0,0,5.13,2.784,7.338,7.338,0,0,0,5.57-1.475,7.064,7.064,0,0,0,2.8-4.943A6.435,6.435,0,0,0,34.8,126.1a7.858,7.858,0,0,0-.54-1.374,15.266,15.266,0,0,0-.891-1.536l3.64.445a10.985,10.985,0,0,1,.8,5.621,10.119,10.119,0,0,1-3.888,6.953m9.681,103.1,7.445-5.757-5.318-6.877-7.445,5.757-1.86-2.405,15.942-12.327,1.861,2.405-6.237,4.822L53.3,231.81l6.237-4.822,1.861,2.406L45.459,241.72Zm14.758,15.411-7.981-7.745,14.033-14.463,7.981,7.745-1.99,2.051-5.8-5.626-3.372,3.475,5.629,5.462-1.99,2.051-5.63-5.462-4.69,4.833,5.8,5.627Zm15.306,1.188-.147,10.614L70.538,264.3l.33-10.053-.438-.329-4.941,6.606L63.054,258.7l12.069-16.138,2.854,2.134q3.2,2.392,3.721,4.657a5.51,5.51,0,0,1-1.075,4.705,5.721,5.721,0,0,1-3.186,2.212,5.471,5.471,0,0,1-3.773-.36m4.074,13.1,10.394-17.266,2.605,1.568L80.343,270.578ZM88.295,274.9l7.584-15.541-4.164-2.033,1.254-2.568,11.05,5.391-1.254,2.568-4.153-2.026-7.584,15.542Zm23.59,9.366-.431-5.315-8.171-2.769-3.7,3.916-3.1-1.051L112.8,261.963l2.237,23.372Zm12.455-1.7a7.2,7.2,0,0,0,4.512,2.775,6.074,6.074,0,0,0,4.221-.855,5.382,5.382,0,0,0,2.552-3.291l-4.961-.8.454-2.821,8.222,1.321-.105.657a13.753,13.753,0,0,1-1.167,3.885,8.55,8.55,0,0,1-2.22,2.709,9.128,9.128,0,0,1-7.551,1.985,9.817,9.817,0,0,1-6.667-4.166,10.52,10.52,0,0,1,14.462-14.793,12.716,12.716,0,0,1,3.3,3.7l-2.468,1.705a7.355,7.355,0,0,0-5.442-4.22,7.222,7.222,0,0,0-5.646,1.326,7.37,7.37,0,0,0-3,5.017,7.144,7.144,0,0,0,1.5,5.86m31.055-10.315-8.078-.13-.079,4.841,7.843.128-.046,2.858-7.844-.127-.109,6.733,8.078.131-.047,2.858L144,289.362l.327-20.149,11.117.18Zm25.065,12.4a6.357,6.357,0,0,1-4.2,2.668,6.2,6.2,0,0,1-4.549-.707,7.16,7.16,0,0,1-2.889-3.9l2.9-1.248a5.237,5.237,0,0,0,1.18,2.272,3.474,3.474,0,0,0,5.079-.617,3.3,3.3,0,0,0,.467-2.548,3.367,3.367,0,0,0-.363-1.027,2.712,2.712,0,0,0-.669-.788,4.047,4.047,0,0,0-1.024-.588,8.623,8.623,0,0,0-1.412-.428l-2.062-.428q-4.393-.937-5.028-4.244a4.853,4.853,0,0,1,.989-4.058,6.27,6.27,0,0,1,3.952-2.327A6.032,6.032,0,0,1,178.81,269l-2.148,1.9a4.24,4.24,0,0,0-1.59-1.29,3.071,3.071,0,0,0-1.732-.092,3.11,3.11,0,0,0-1.928,1.1,2.227,2.227,0,0,0-.486,1.9q.278,1.449,2.6,1.919l2.129.429a8.582,8.582,0,0,1,3.981,1.7,5.465,5.465,0,0,1,1.777,3.228,6.157,6.157,0,0,1-.955,4.861m23.156-8.714a10.649,10.649,0,0,1-13.528,5.338,10.4,10.4,0,0,1-5.509-14.105,10.266,10.266,0,0,1,5.952-5.444,10.538,10.538,0,0,1,13.454,6.217,9.91,9.91,0,0,1-.37,7.993m17.993-6.085a10.112,10.112,0,0,1-7.889,1.111,10,10,0,0,1-6.323-4.806,10.346,10.346,0,0,1-1.259-7.212,10.137,10.137,0,0,1,5.142-7.274,10.3,10.3,0,0,1,5.276-1.369l1.815,3.112a8.439,8.439,0,0,0-5.824.842,6.951,6.951,0,0,0-3.4,4.564,7.527,7.527,0,0,0,.886,5.77,7.346,7.346,0,0,0,4.545,3.545,7.07,7.07,0,0,0,5.63-.762,6.425,6.425,0,0,0,2.093-1.824,7.924,7.924,0,0,0,.768-1.263,15.5,15.5,0,0,0,.684-1.638l1.847,3.168a10.965,10.965,0,0,1-3.992,4.035m9.205-6.574L218.8,247.1l2.441-1.812,12.012,16.18ZM238.5,257.4l-13.507-14.956,8.253-7.453,1.915,2.121-6,5.415,3.245,3.594,5.822-5.258,1.915,2.122-5.821,5.257,4.514,5,6-5.415,1.915,2.122Zm14.072-13.722-12.995-11.41-3.057,3.481-2.149-1.887,8.113-9.238,2.148,1.885-3.048,3.472,12.995,11.411Zm11.084-14.085-7.23-4.85-13.172-.912,1.949-2.9,9.254.659-4.115-8.323,1.949-2.9,5.827,11.86,7.23,4.849Zm.721-111.174-.563-2.989,21.148-3.994-12.379,17.3,13.762-2.6.563,2.989L265.9,133.086,278.239,115.8Zm9.176,68.617a6.667,6.667,0,1,1,6.667-6.667,6.667,6.667,0,0,1-6.667,6.667" fill="#0a2b71"/>
        <path id="Path_263" data-name="Path 263" d="M81.858,34.353q-1.681-2.6-5.21-.314l-.91.588L79.213,40l.812-.524q3.625-2.348,1.833-5.119" transform="translate(1.787 0.778)" fill="#0a2b71"/>
        <path id="Path_264" data-name="Path 264" d="M112.37,20.21l-1.052,7.46,5.868-1.743Z" transform="translate(2.627 0.477)" fill="#0a2b71"/>
        <path id="Path_265" data-name="Path 265" d="M222.224,138.727c-2.33-1-4.392-2.534-6.687-3.619a56.889,56.889,0,0,0-8.637-2.949,42.271,42.271,0,0,0-9.039-1.674c-1.956-.121-1.963-3.177,0-3.055.148.009.295.032.443.042a2.147,2.147,0,0,1,.232-.4,36.466,36.466,0,0,0,2.207-4.053,17.341,17.341,0,0,0,2.1-4.021,12.089,12.089,0,0,0,.285-4.647c-.2-1.642-.708-2.978.114-4.543a20.809,20.809,0,0,0-3.807-.146c-2.883.186-5.712.942-8.6,1.139-1.631.112-1.877-1.953-.808-2.742a1.37,1.37,0,0,1,.074-.215,27.715,27.715,0,0,0,3.018-8.765c.305-1.508.55-3.029.865-4.536.3-1.418.983-2.751.958-4.221a1.541,1.541,0,0,1,.293-.882c.1-2.265.247-4.535.4-6.794a28.3,28.3,0,0,0,.163-2.929,2.262,2.262,0,0,0-.826-1.906,1.641,1.641,0,0,1-.725-1.342c-1.337-.025-2.931-.015-3.892.764-.708.574-1.3,1.243-2.05,1.774-.785.554-1.634,1.011-2.436,1.538-1.546,1.017-2.909,2.317-4.523,3.228-1.381.78-2.91,1.211-4.319,1.92-.278.268-.554.541-.845.79a16.109,16.109,0,0,1-3.138,2.028,23.292,23.292,0,0,0-3.123,1.848c-.3.22-.611.418-.92.615a1.612,1.612,0,0,1-.182.7,5.318,5.318,0,0,1-2.48,2.031c-.077.149-.168.292-.237.445a7.372,7.372,0,0,0-.422,1.55,1.468,1.468,0,0,1-.7.912,1.527,1.527,0,0,1-2.09-.548,1.673,1.673,0,0,1-.155-1.177,7.37,7.37,0,0,1,.3-1.233,1.366,1.366,0,0,1-.426-1.068,37.372,37.372,0,0,0-.258-5.446,1.373,1.373,0,0,1-.42-.661,28.291,28.291,0,0,0-.765-2.856c-.043-.12-.087-.237-.133-.355a.124.124,0,0,1-.013-.039c-.013-.028-.016-.032-.044-.091-.1-.214-.208-.426-.326-.634s-.241-.4-.372-.6c-.025-.035-.06-.084-.087-.118-.058-.074-.118-.146-.177-.22a10.46,10.46,0,0,1-1.65-2.438,4.686,4.686,0,0,1-.309-1.17,1.814,1.814,0,0,1-.8-.628q-.362-.521-.744-1.027c-.11-.145-.221-.292-.333-.436l-.037-.047-.206-.263c-.533-.68-1.071-1.356-1.6-2.041a24.737,24.737,0,0,1-2.644-4.089c-.027-.055-.03-.113-.051-.17-.079.005-.158,0-.236.005a5.463,5.463,0,0,0-1.017.27,5.536,5.536,0,0,0-.995.59,1.1,1.1,0,0,1-.6.2,1.39,1.39,0,0,1-.4.808c-3.1,3.065-4.626,7.35-6.639,11.18a1.346,1.346,0,0,1-.666.578c-.34.579-.689,1.155-1.021,1.739-.185.328-.365.659-.534.995-.083.166-.159.335-.24.5-.028.063-.037.082-.043.1l-.04.1c-.562,1.448-.729,3-1.407,4.407a1.139,1.139,0,0,1-.163.193c.006.032.017.06.024.092.361,1.925-2.584,2.742-2.946.813-.383-2.039-2.062-3.537-3.238-5.168a33.93,33.93,0,0,0-4.478-4.473,32.293,32.293,0,0,0-5.171-4.219,38.09,38.09,0,0,0-6.607-3.219,1.61,1.61,0,0,1-.581-.368c-.077.027-.157.044-.233.073l-.044.016c-.08.037-.16.073-.24.111q-.249.121-.49.261c-.078.046-.156.093-.232.143h0c-.049.055-.127.111-.171.157-.013.014-.04.046-.067.077s-.041.058-.049.072c-.04.063-.078.13-.113.2l-.012.027c.038-.071.05-.074-.044.1a6.977,6.977,0,0,0-.251.966,16.7,16.7,0,0,1-.421,1.929,1.591,1.591,0,0,1-.627.828,127.814,127.814,0,0,1,3.637,13.886c1.228,5.483,2.758,11.331,6.761,15.491,2.187,2.272-1.272,5.737-3.462,3.463a20.944,20.944,0,0,1-1.6-1.9,1.7,1.7,0,0,1-1.089-.291,16.3,16.3,0,0,0-4.214-2.022c-1.359-.473-2.685-1-4.014-1.551a2.425,2.425,0,0,1-2.016-.013l-.215-.1-.128-.052c-.215-.084-.431-.163-.65-.239-.453-.157-.912-.3-1.375-.425-.969-.268-1.952-.483-2.94-.668-.571-.107-1.146-.187-1.721-.277-1.306,0-2.61.01-3.9-.014-3.226-.059-6.449-.075-9.674.028-2.586.082-5.217-.165-7.7.659,1.665,1.167,3.332,2.333,4.928,3.6,1.895,1.5,4.014,3.1,5.232,5.238a18.956,18.956,0,0,1,1.266,3.869,24.171,24.171,0,0,0,1.792,3.755c1.164,2.206,1.992,4.229,4.171,5.594.069.043.12.093.18.139a4.4,4.4,0,0,1,.425.185.294.294,0,0,1,.03.019l.424.328.01.008.014.014a2.083,2.083,0,0,1,.538.924c.026.185.05.372.076.557a2.094,2.094,0,0,1-.287,1.057l-.328.425a2,2,0,0,1-2.164.479,2.07,2.07,0,0,1-.595-.225l-.066-.05a1.536,1.536,0,0,1-.808.408,30.282,30.282,0,0,0-4.906.991c-.215.07-.429.143-.641.223-.058.021-.115.045-.172.068l-.124.056c-.339.173-.677.34-1,.544-.046.03-.328.233-.407.286-.087.08-.311.279-.346.314-.125.123-.234.261-.358.384.343-.341.067-.076-.017.056-.176.278-.29.591-.46.87l-.005.01-.053.132c-.057.145-.112.291-.167.437-.277.74-.548,1.485-.886,2.2a5.349,5.349,0,0,1-3.1,2.852l.006.019c.021.069.043.136.063.2.012.016.093.218.132.289.087.154.187.3.281.446a.718.718,0,0,1,.048.087.438.438,0,0,1,.072.07c.261.285.516.568.8.834s.587.531.893.781c.01.008.264.208.292.231.123.092.246.184.37.274.543.4,1.1.771,1.655,1.147,1.416.959,2.763,2.01,4.162,2.992a11.168,11.168,0,0,0,4.9,2.282,1.407,1.407,0,0,1,.215.064,2.014,2.014,0,0,1,.326-.066c2.195,0,2.571,2.737,1.2,3.774a2.126,2.126,0,0,1-.189.142,1.465,1.465,0,0,1-.158.1,1.66,1.66,0,0,1-.442.172,28.949,28.949,0,0,0-4.008,1.264,1.985,1.985,0,0,1-1.334,1.224c-.116.028-.217.06-.321.092a79.1,79.1,0,0,1-7.453,5.05,2.16,2.16,0,0,1-1.017,1.89c-.657.33-1.285.709-1.92,1.078a11.468,11.468,0,0,1-2.763,3.093,1.616,1.616,0,0,1-.924.308c-.271.364-.541.729-.8,1.091-.982,1.359-1.652,2.892-2.6,4.241.062.028.126.049.186.077a1.165,1.165,0,0,1,.137.072,2.386,2.386,0,0,1,.622.507,2.092,2.092,0,0,1,.538.924c.026.185.05.372.075.557a2.015,2.015,0,0,1-.492,1.329c4.29,1.57,8.545,3.463,13.105,3.853.044,0,.082.025.126.031a29.574,29.574,0,0,0,5.5-.375c2.95-.5,5.844-1.29,8.779-1.864a1.8,1.8,0,0,1,2.025,2.3,1.739,1.739,0,0,1-1.2,1.922c.2-.07-.137.115-.076.059.027-.024-.149.165-.182.2a5.847,5.847,0,0,0-.34.48c-.319.49-.644.978-.964,1.467-.806,1.23-1.579,2.481-2.332,3.745a26.554,26.554,0,0,0-1.891,3.719,18.2,18.2,0,0,0-.783,3.634,1.687,1.687,0,0,1,.849,1.691c4.9.352,9.8-.983,14.487-2.248a43.365,43.365,0,0,0,7.108-2.055c2.361-1.105,4.482-2.851,6.756-4.139a1.528,1.528,0,0,1,1.542,2.638c-.2.116-.4.251-.607.374.011.049.04.085.047.136.372,2.783-.157,5.556-.22,8.342-.061,2.755-.387,5.47-.649,8.21a66.175,66.175,0,0,0-.318,8.3c.009.3.026.592.037.887a1.49,1.49,0,0,1,.95,1c.2.854.423,1.7.65,2.548a15.064,15.064,0,0,1,1.862,1.745h.185a1.522,1.522,0,0,1,.769.208c.713-.421,1.4-.868,2.056-1.221a37.258,37.258,0,0,0,6.23-4.545c1.83-1.544,4.217-2.828,5.686-4.736,1.649-2.14,2.774-4.653,4.429-6.8a1.563,1.563,0,0,1,2.089-.549,1.522,1.522,0,0,1,.441.421,1.4,1.4,0,0,1,.993,1.005c.285,1.42,1.564,2.371,2.413,3.467,1.125,1.456,2.059,3.043,3.088,4.565a18.489,18.489,0,0,0,2.962,3.6,11.858,11.858,0,0,0,3.217,1.949c-.034-.511-.046-1.023-.046-1.538a1.588,1.588,0,0,1,.447-1.08,1.527,1.527,0,0,1,2.16,0,1.525,1.525,0,0,1,.2.3l.074-.031a1.163,1.163,0,0,1,.609-.028,1.136,1.136,0,0,1,.568.181c.026.013.037.041.06.055a1.15,1.15,0,0,1,.283-.09c.04-.008.079.01.118.005a18.775,18.775,0,0,1,.8-4.725c.657-2.046.914-4.2,1.8-6.172a20.588,20.588,0,0,0,1.77-6.521c.24-2.3.935-4.6.921-6.916a1.523,1.523,0,0,1,2.963-.439,1.284,1.284,0,0,1,.742.457,37.728,37.728,0,0,0,7.892,7.331,1.568,1.568,0,0,1,.36.114c.987.527,1.966,1.064,2.949,1.594a1.063,1.063,0,0,1,.2.008c.447.15.871.362,1.317.513a1.534,1.534,0,0,1,.675.392l.238.309c.006.012.01.024.015.036.061.031.125.057.186.088a19.777,19.777,0,0,0,2.068.6c3.484.786,7.045,1.436,10.575,1.992a30.475,30.475,0,0,0,7.42.594,2.171,2.171,0,0,1,.147-.532c-.083.19.073-.335.086-.4s.009-.054.014-.082c.01-.11.017-.22.023-.331.017-.387,0-.774-.011-1.16-.03-.783-.024-1.564-.008-2.348a20.737,20.737,0,0,0-.193-4.094c-.016-.029-.041-.041-.056-.073-1.8-3.636-2.183-7.721-3.615-11.487-1.219-3.208-2.284-6.618-4.835-9.036a1.4,1.4,0,0,1-.527-.664,1.215,1.215,0,0,1-.082-.732,1.415,1.415,0,0,1,1.451-1.38,1.478,1.478,0,0,1,.468.1,1.421,1.421,0,0,1,.143.029,1.087,1.087,0,0,1,.125.075c.053.025.1.067.158.094a1.443,1.443,0,0,1,.351-.074,38.976,38.976,0,0,0,12.527-1.946,37.072,37.072,0,0,0,5.683-2.6,11.51,11.51,0,0,0,2.351-1.588c.565-.519,1.13-1.023,1.733-1.487-.056-.03-.112-.062-.169-.092a10.271,10.271,0,0,1-1.766-1.165,1.5,1.5,0,0,1-.448-1.081,1.539,1.539,0,0,1,.448-1.08,1.556,1.556,0,0,1,1.08-.447,1.422,1.422,0,0,1,.753.242,5.175,5.175,0,0,0,.255-.981,1.5,1.5,0,0,1,.161-.406l.006-.008c-.893-.625-1.949-1.013-2.858-1.63a12.226,12.226,0,0,1-2.923-3.293c-1.436-2.005-2.955-3.849-5.459-4.241a1.539,1.539,0,0,1-1.067-1.879,1.574,1.574,0,0,1,1.878-1.067c.042.006.079.02.119.028,2.013-1.648,4.373-2.755,6.468-4.286a12.081,12.081,0,0,0,1.314-1.152,6.738,6.738,0,0,0,1.054-1.362c.2-.319.391-.645.57-.977.081-.148.157-.286.216-.413a1.39,1.39,0,0,1-.2-1.491,1.138,1.138,0,0,1,.316-.491l.014-.013.007-.006c.1-.079.213-.167.315-.243a.135.135,0,0,1,.019-.014l.025-.014.012-.007.106-.044a2.93,2.93,0,0,1,.139-.3,1.373,1.373,0,0,1,1.381-.708,23.355,23.355,0,0,0-3.723-1.63" transform="translate(1.676 1.635)" fill="#ffc200"/>
        <path id="Path_266" data-name="Path 266" d="M159.416,167.711s25.746,15.468,6.463,56.926c0,0,.668,4.524.348,4.381s-.436-1.6-1.47-1.3-1,2.242-1,2.242-1.052-2.518-1.99-2.425-.552,2.955-.552,2.955-35.037-24.484-15.133-61.31" transform="translate(3.303 3.958)" fill="none" stroke="#f8810a" stroke-linecap="round" stroke-linejoin="round" stroke-width="2"/>
        <path id="Path_267" data-name="Path 267" d="M146.206,212.46c-6.276,8.724-13.794,20.385-25.576,20.9a79.047,79.047,0,0,1,.479-40.217" transform="translate(2.791 4.558)" fill="none" stroke="#f8810a" stroke-linecap="round" stroke-linejoin="round" stroke-width="2"/>
        <path id="Path_268" data-name="Path 268" d="M140.082,167.024s-6.572,36.506-52.945,37.693c0,0,1.547-1.742-1.125-1.783a116.526,116.526,0,0,1,10.319-19.98c8.025-12.355,20.4-25.452,35.952-23.127" transform="translate(2.03 3.766)" fill="none" stroke="#f8810a" stroke-linecap="round" stroke-linejoin="round" stroke-width="2"/>
        <path id="Path_269" data-name="Path 269" d="M96.93,183.108c-11.162,3.293-24.377,2.937-35.044-2.075,1.694-1.537,1.334-3.49-1.252-3.5a91.868,91.868,0,0,1,30.708-24.51" transform="translate(1.431 3.611)" fill="none" stroke="#f8810a" stroke-linecap="round" stroke-linejoin="round" stroke-width="2"/>
        <path id="Path_270" data-name="Path 270" d="M129.975,154.492S98.039,167.505,70.618,140.02c0,0,3.443-.255,3.09-2.333s3.263-5.586,3.263-5.586,21.665-12.095,52.585,10.422" transform="translate(1.667 3.041)" fill="none" stroke="#f8810a" stroke-linecap="round" stroke-linejoin="round" stroke-width="2"/>
        <path id="Path_271" data-name="Path 271" d="M134.856,133.145S128,96.021,72.482,99.911c0,0-4.9-.781-2.721,1.218s8.716,5.429,10.182,9.028S79.7,120.165,91.47,129.648" transform="translate(1.633 2.351)" fill="none" stroke="#f8810a" stroke-linecap="round" stroke-linejoin="round" stroke-width="2"/>
        <path id="Path_272" data-name="Path 272" d="M120.018,112.7c-4.358-13.485-12.664-24.494-13.281-38.633-.1-2.356.224-5.676,3.441-7.7A72.094,72.094,0,0,1,134.61,88.628" transform="translate(2.519 1.566)" fill="none" stroke="#f8810a" stroke-linecap="round" stroke-linejoin="round" stroke-width="2"/>
        <path id="Path_273" data-name="Path 273" d="M156.806,127.233s21.179-32.8-5.567-66.386c0,0-1.937,1.184-2.1-.17s-35.656,48.872-6.58,67.491C142.559,128.169,144.571,125.6,156.806,127.233Z" transform="translate(3.094 1.431)" fill="none" stroke="#f8810a" stroke-linecap="round" stroke-linejoin="round" stroke-width="2"/>
        <path id="Path_274" data-name="Path 274" d="M164.294,95.918C164.412,83.037,198.57,68.2,198.57,68.2s-2,2.18,1.42,2.555c0,0-.888,32.385-8.924,37.76" transform="translate(3.877 1.61)" fill="none" stroke="#f8810a" stroke-linecap="round" stroke-linejoin="round" stroke-width="2"/>
        <path id="Path_275" data-name="Path 275" d="M172.4,143.725c32.719-7.029,36.111-31.253,35.734-32.7s.389-5.46.389-5.46c-38.987.131-44.836,24.411-44.836,24.411" transform="translate(3.863 2.491)" fill="none" stroke="#f8810a" stroke-linecap="round" stroke-linejoin="round" stroke-width="2"/>
        <path id="Path_276" data-name="Path 276" d="M171.286,155.316s32.321,16.227,60.174-11.158c0,0-2.31-2.568,2.037-3.7s-28.488-15.924-34.4-11.008" transform="translate(4.042 3.032)" fill="none" stroke="#f8810a" stroke-linecap="round" stroke-linejoin="round" stroke-width="2"/>
        <path id="Path_277" data-name="Path 277" d="M201.617,180.092s20.287.737,29.173-9.124c0,0-3.155-1.537-3.237-2.214s4.516-2.081,4.585-1.665-.053-2.458-4.019-3.332-2.636-6.427-11.237-9.244" transform="translate(4.758 3.647)" fill="none" stroke="#f8810a" stroke-linecap="round" stroke-linejoin="round" stroke-width="2"/>
        <path id="Path_278" data-name="Path 278" d="M168.7,159.923s44.731,6.788,45.713,55.631c0,0-22.834,3.247-42.172-17.682" transform="translate(3.982 3.774)" fill="none" stroke="#f8810a" stroke-linecap="round" stroke-linejoin="round" stroke-width="2"/>
        <path id="Path_279" data-name="Path 279" d="M171.291,157.117A22.8,22.8,0,1,1,159.77,127a22.8,22.8,0,0,1,11.521,30.115" transform="translate(3.013 2.95)" fill="#2a140c"/>
        <path id="Path_280" data-name="Path 280" d="M171.291,157.117A22.8,22.8,0,1,1,159.77,127,22.8,22.8,0,0,1,171.291,157.117Z" transform="translate(3.013 2.95)" fill="none" stroke="#1b0f0b" stroke-linecap="round" stroke-linejoin="round" stroke-width="2"/>
      </g>
    </g>
  </g>
</svg>
